# xmcd
#
# Track frame offsets:
#	150
#	10369
#	24625
#	37254
#	54994
#	66733
#	80161
#	92653
#	106207
#	122875
#	138400
#	154852
#	169613
#	182061
#	198149
#	210803
#	228171
#	243494
#	260830
#	274531
#	295843
#	312336
#	328974
#	341160
#
# Disc length: 4762 seconds
#
# Revision: 1
# Processed by: cddbd v1.5.1PL2 Copyright (c) Steve Scherf et al.
# Submitted via: EasyCDDAExtractor 6.2.0.3
#
DISCID=66129818
DTITLE=Johnny Cash - The Legend  ( 4 CD-Box ) - CD 4
DYEAR=2005
DGENRE=Country
TTITLE0=Keep On The Sunny Side (With the Carter Family)
TTITLE1=Diamonds In The Rough (With Mother Maybelle Carter)
TTITLE2=(There'll Be) Peace In The Valley (With the Carter Family)
TTITLE3=Were You There (When They Crucified My Lord) -  (With the Carter Famil
TTITLE3=y)
TTITLE4=Another Man Done Gone (With Anita Carter)
TTITLE5=Pick The Wildwood Flower (With Mother Maybelle Carter)
TTITLE6=Jackson (With June Carter)
TTITLE7=If I Were A Carpenter (With June Carter-Cash)
TTITLE8=Girl From The North Country (With Bob Dylan)
TTITLE9=One More Ride (With Marty Stuart)
TTITLE10=You Can't Beat Jesus Christ (Previously Unreleased) - (With Billy Joe
TTITLE10=Shaver)
TTITLE11=There Ain't No Good Chain Gang (With Waylon Jennings)
TTITLE12=We Ought To Be Ashamed (With Elvis Costello)
TTITLE13=Crazy Old Soldier (With Ray Charles)
TTITLE14=Silver Haired Daddy Of Mine (With Tommy Cash)
TTITLE15=Who's Gene Autry? (With June Carter-Cash)
TTITLE16=The Night Hank Williams Came To Town (With Waylon Jennings)
TTITLE17=I Walk The Line (Revisited) - (With Rodney Crowell)
TTITLE18=Highwayman (With Willie Nelson, Kris Kristofferson and Waylon Jenning
TTITLE18=s)
TTITLE19=The Wanderer (U2 starring Johnny Cash)
TTITLE20=September When It Comes (With Rosanna Cash)
TTITLE21=Tears In The Holston River (With The Nitty Gritty Dirt Band)
TTITLE22=Far Side Banks Of Jordan (With June Carter-Cash)
TTITLE23=It Takes One To Know Me (Previously Unreleased) - (With June Carter-C
TTITLE23=ash, Gueat: Carlene Carter)
EXTD=Disc Four:  Family and Friends (Duette]\nSONY BMG Music Entertainment\nCO
EXTD=L 517461 2  ( 5 099751 746126 )
EXTT0=
EXTT1=
EXTT2=
EXTT3=
EXTT4=
EXTT5=
EXTT6=
EXTT7=
EXTT8=
EXTT9=
EXTT10=
EXTT11=
EXTT12=
EXTT13=
EXTT14=
EXTT15=
EXTT16=
EXTT17=
EXTT18=
EXTT19=
EXTT20=
EXTT21=
EXTT22=
EXTT23=
PLAYORDER=
